<svg id="visual" viewBox="0 0 960 540" width="960" height="540" xmlns="http://www.w3.org/2000/svg" xmlns:xlink="http://www.w3.org/1999/xlink" version="1.1"><rect x="0" y="0" width="960" height="540" fill="#FFFFFF"></rect><path d="M0 99L14.5 126.8C29 154.7 58 210.3 87.2 224.5C116.3 238.7 145.7 211.3 174.8 208.7C204 206 233 228 262 239.3C291 250.7 320 251.3 349 220.3C378 189.3 407 126.7 436.2 104C465.3 81.3 494.7 98.7 523.8 103C553 107.3 582 98.7 611 115.5C640 132.3 669 174.7 698 205.2C727 235.7 756 254.3 785.2 261.8C814.3 269.3 843.7 265.7 872.8 238.3C902 211 931 160 945.5 134.5L960 109L960 541L945.5 541C931 541 902 541 872.8 541C843.7 541 814.3 541 785.2 541C756 541 727 541 698 541C669 541 640 541 611 541C582 541 553 541 523.8 541C494.7 541 465.3 541 436.2 541C407 541 378 541 349 541C320 541 291 541 262 541C233 541 204 541 174.8 541C145.7 541 116.3 541 87.2 541C58 541 29 541 14.5 541L0 541Z" fill="#ffffff"></path><path d="M0 297L14.5 277C29 257 58 217 87.2 219.8C116.3 222.7 145.7 268.3 174.8 258C204 247.7 233 181.3 262 180.7C291 180 320 245 349 253.8C378 262.7 407 215.3 436.2 214.8C465.3 214.3 494.7 260.7 523.8 256C553 251.3 582 195.7 611 193.5C640 191.3 669 242.7 698 242.5C727 242.3 756 190.7 785.2 193.3C814.3 196 843.7 253 872.8 271.5C902 290 931 270 945.5 260L960 250L960 541L945.5 541C931 541 902 541 872.8 541C843.7 541 814.3 541 785.2 541C756 541 727 541 698 541C669 541 640 541 611 541C582 541 553 541 523.8 541C494.7 541 465.3 541 436.2 541C407 541 378 541 349 541C320 541 291 541 262 541C233 541 204 541 174.8 541C145.7 541 116.3 541 87.2 541C58 541 29 541 14.5 541L0 541Z" fill="#fff5f9"></path><path d="M0 149L14.5 175C29 201 58 253 87.2 285.3C116.3 317.7 145.7 330.3 174.8 331.2C204 332 233 321 262 298.3C291 275.7 320 241.3 349 247.3C378 253.3 407 299.7 436.2 303.7C465.3 307.7 494.7 269.3 523.8 269.8C553 270.3 582 309.7 611 311.8C640 314 669 279 698 261.7C727 244.3 756 244.7 785.2 241.5C814.3 238.3 843.7 231.7 872.8 229.3C902 227 931 229 945.5 230L960 231L960 541L945.5 541C931 541 902 541 872.8 541C843.7 541 814.3 541 785.2 541C756 541 727 541 698 541C669 541 640 541 611 541C582 541 553 541 523.8 541C494.7 541 465.3 541 436.2 541C407 541 378 541 349 541C320 541 291 541 262 541C233 541 204 541 174.8 541C145.7 541 116.3 541 87.2 541C58 541 29 541 14.5 541L0 541Z" fill="#ffebf3"></path><path d="M0 294L14.5 288C29 282 58 270 87.2 257.5C116.3 245 145.7 232 174.8 245.7C204 259.3 233 299.7 262 306.3C291 313 320 286 349 273.8C378 261.7 407 264.3 436.2 271.8C465.3 279.3 494.7 291.7 523.8 289C553 286.3 582 268.7 611 253.7C640 238.7 669 226.3 698 234.2C727 242 756 270 785.2 287.2C814.3 304.3 843.7 310.7 872.8 299.3C902 288 931 259 945.5 244.5L960 230L960 541L945.5 541C931 541 902 541 872.8 541C843.7 541 814.3 541 785.2 541C756 541 727 541 698 541C669 541 640 541 611 541C582 541 553 541 523.8 541C494.7 541 465.3 541 436.2 541C407 541 378 541 349 541C320 541 291 541 262 541C233 541 204 541 174.8 541C145.7 541 116.3 541 87.2 541C58 541 29 541 14.5 541L0 541Z" fill="#ffe1ed"></path><path d="M0 346L14.5 327.5C29 309 58 272 87.2 275.7C116.3 279.3 145.7 323.7 174.8 347.7C204 371.7 233 375.3 262 363C291 350.7 320 322.3 349 298C378 273.7 407 253.3 436.2 253.2C465.3 253 494.7 273 523.8 274.5C553 276 582 259 611 252C640 245 669 248 698 252C727 256 756 261 785.2 278C814.3 295 843.7 324 872.8 319.2C902 314.3 931 275.7 945.5 256.3L960 237L960 541L945.5 541C931 541 902 541 872.8 541C843.7 541 814.3 541 785.2 541C756 541 727 541 698 541C669 541 640 541 611 541C582 541 553 541 523.8 541C494.7 541 465.3 541 436.2 541C407 541 378 541 349 541C320 541 291 541 262 541C233 541 204 541 174.8 541C145.7 541 116.3 541 87.2 541C58 541 29 541 14.5 541L0 541Z" fill="#ffd7e7"></path><path d="M0 414L14.5 394.7C29 375.3 58 336.7 87.2 333.8C116.3 331 145.7 364 174.8 378.5C204 393 233 389 262 387C291 385 320 385 349 381.7C378 378.3 407 371.7 436.2 376.5C465.3 381.3 494.7 397.7 523.8 401.5C553 405.3 582 396.7 611 381.7C640 366.7 669 345.3 698 348.3C727 351.3 756 378.7 785.2 394.3C814.3 410 843.7 414 872.8 409.3C902 404.7 931 391.3 945.5 384.7L960 378L960 541L945.5 541C931 541 902 541 872.8 541C843.7 541 814.3 541 785.2 541C756 541 727 541 698 541C669 541 640 541 611 541C582 541 553 541 523.8 541C494.7 541 465.3 541 436.2 541C407 541 378 541 349 541C320 541 291 541 262 541C233 541 204 541 174.8 541C145.7 541 116.3 541 87.2 541C58 541 29 541 14.5 541L0 541Z" fill="#ffcde1"></path><path d="M0 362L14.5 365C29 368 58 374 87.2 370.5C116.3 367 145.7 354 174.8 346C204 338 233 335 262 341C291 347 320 362 349 380.2C378 398.3 407 419.7 436.2 429.8C465.3 440 494.7 439 523.8 420C553 401 582 364 611 362.5C640 361 669 395 698 406.5C727 418 756 407 785.2 409.3C814.3 411.7 843.7 427.3 872.8 422.7C902 418 931 393 945.5 380.5L960 368L960 541L945.5 541C931 541 902 541 872.8 541C843.7 541 814.3 541 785.2 541C756 541 727 541 698 541C669 541 640 541 611 541C582 541 553 541 523.8 541C494.7 541 465.3 541 436.2 541C407 541 378 541 349 541C320 541 291 541 262 541C233 541 204 541 174.8 541C145.7 541 116.3 541 87.2 541C58 541 29 541 14.5 541L0 541Z" fill="#ffc3db"></path><path d="M0 434L14.5 436C29 438 58 442 87.2 443C116.3 444 145.7 442 174.8 440.2C204 438.3 233 436.7 262 430.5C291 424.3 320 413.7 349 415.7C378 417.7 407 432.3 436.2 431.3C465.3 430.3 494.7 413.7 523.8 413.8C553 414 582 431 611 428.3C640 425.7 669 403.3 698 390.2C727 377 756 373 785.2 378C814.3 383 843.7 397 872.8 412.7C902 428.3 931 445.7 945.5 454.3L960 463L960 541L945.5 541C931 541 902 541 872.8 541C843.7 541 814.3 541 785.2 541C756 541 727 541 698 541C669 541 640 541 611 541C582 541 553 541 523.8 541C494.7 541 465.3 541 436.2 541C407 541 378 541 349 541C320 541 291 541 262 541C233 541 204 541 174.8 541C145.7 541 116.3 541 87.2 541C58 541 29 541 14.5 541L0 541Z" fill="#ffb9d6"></path><path d="M0 454L14.5 451.3C29 448.7 58 443.3 87.2 446.2C116.3 449 145.7 460 174.8 461.5C204 463 233 455 262 452C291 449 320 451 349 459.7C378 468.3 407 483.7 436.2 479.7C465.3 475.7 494.7 452.3 523.8 439.3C553 426.3 582 423.7 611 422.3C640 421 669 421 698 422.8C727 424.7 756 428.3 785.2 437.7C814.3 447 843.7 462 872.8 459C902 456 931 435 945.5 424.5L960 414L960 541L945.5 541C931 541 902 541 872.8 541C843.7 541 814.3 541 785.2 541C756 541 727 541 698 541C669 541 640 541 611 541C582 541 553 541 523.8 541C494.7 541 465.3 541 436.2 541C407 541 378 541 349 541C320 541 291 541 262 541C233 541 204 541 174.8 541C145.7 541 116.3 541 87.2 541C58 541 29 541 14.5 541L0 541Z" fill="#ffaed0"></path><path d="M0 504L14.5 503.3C29 502.7 58 501.3 87.2 497.2C116.3 493 145.7 486 174.8 488.5C204 491 233 503 262 509.7C291 516.3 320 517.7 349 510.8C378 504 407 489 436.2 486.8C465.3 484.7 494.7 495.3 523.8 503.5C553 511.7 582 517.3 611 513.8C640 510.3 669 497.7 698 494.7C727 491.7 756 498.3 785.2 499.2C814.3 500 843.7 495 872.8 496.2C902 497.3 931 504.7 945.5 508.3L960 512L960 541L945.5 541C931 541 902 541 872.8 541C843.7 541 814.3 541 785.2 541C756 541 727 541 698 541C669 541 640 541 611 541C582 541 553 541 523.8 541C494.7 541 465.3 541 436.2 541C407 541 378 541 349 541C320 541 291 541 262 541C233 541 204 541 174.8 541C145.7 541 116.3 541 87.2 541C58 541 29 541 14.5 541L0 541Z" fill="#ffa4ca"></path></svg>